# xmcd
#
# Track frame offsets: 
#        151
#        17541
#        50089
#        72570
#        89593
#        92994
#        109194
#        131188
#
# Disc length: 2261 seconds
#
# Revision: 0
# Processed by: cddbd v1.5.1PL2 Copyright (c) Steve Scherf et al.
# Submitted via: ExactAudioCopy v0.95b3
#
DISCID=7508d308
DTITLE=Kerry Kearney Band - A Night in the Tropics
DYEAR=2006
DGENRE=Blues
TTITLE0=Chop Suey
TTITLE1=Love in Vain
TTITLE2=It Ain't Right
TTITLE3=Skip to my Lou
TTITLE4=Jelly Roll Campo
TTITLE5=girl from the north country
TTITLE6=a night in the tropics
TTITLE7=Stuck inside of eko with J.P. Blues again
EXTD=
EXTT0=
EXTT1=
EXTT2=
EXTT3=
EXTT4=
EXTT5=
EXTT6=
EXTT7=
PLAYORDER=
